<svg xmlns="http://www.w3.org/2000/svg" viewBox="0 0 2364.6639999999998 480.0" role="img" aria-label="Axiom Civil" xmlns:c2pa="http://c2pa.org/manifest"><metadata><c2pa:manifest>AAAWgmp1bWIAAAAeanVtZGMycGEAEQAQgAAAqgA4m3EDYzJwYQAAABZcanVtYgAAAEdqdW1kYzJtYQARABCAAACqADibcQN1cm46YzJwYTo0NGY0MmY3OC0zYzhiLTQ4ZGYtOTY5Ny1lYzU5MDM5OWE5MTMAAAADl2p1bWIAAAApanVtZGMyYXMAEQAQgAAAqgA4m3EDYzJwYS5hc3NlcnRpb25zAAAAALxqdW1iAAAARGp1bWRjYm9yABEAEIAAAKoAOJtxE2MycGEuaW5ncmVkaWVudC52MwAAAAAYYzJzaGGNqt6kSLDjVuryn5KMqfYAAABwY2JvcqNpZGM6Zm9ybWF0bWltYWdlL3N2Zyt4bWxqaW5zdGFuY2VJRHgseG1wOmlpZDozN2E5MDQ0ZC0yY2QyLTRiZjgtODg5NC0xYTEzMmE0YzJmYjVscmVsYXRpb25zaGlwaHBhcmVudE9mAAAB4mp1bWIAAABBanVtZGNib3IAEQAQgAAAqgA4m3ETYzJwYS5hY3Rpb25zLnYyAAAAABhjMnNoLqiBLE3eoWUrmrRHRpCqXAAAAZljYm9yomdhY3Rpb25zgqJmYWN0aW9ua2MycGEub3BlbmVkanBhcmFtZXRlcnOha2luZ3JlZGllbnRzgaJjdXJseC1zZWxmI2p1bWJmPWMycGEuYXNzZXJ0aW9ucy9jMnBhLmluZ3JlZGllbnQudjNkaGFzaFggzfX9LkciT9+EUQ8+vHDCwS+8khR+wrcZkDFuyj31+kWkZmFjdGlvbngdY29tLmFudGhyb3BpYy5jbGF1ZGUucHJvdmlkZWRqcGFyYW1ldGVyc6F4H2NvbS5hbnRocm9waWMub3JpZ2luLWNvbmZpZGVuY2VndW5rbm93bmtkZXNjcmlwdGlvbnhmQ2xhdWRlIHByb3ZpZGVkIHRoaXMgZmlsZSBhdCB0aGUgcmVxdWVzdCBvZiBhIHVzZXIgYW5kIG1heSBoYXZlIGNyZWF0ZWQgb3IgbW9kaWZpZWQgdGhlIGZpbGUgY29udGVudHMubXNvZnR3YXJlQWdlbnShZG5hbWVmQ2xhdWRlcmFsbEFjdGlvbnNJbmNsdWRlZPUAAADIanVtYgAAAEBqdW1kY2JvcgARABCAAACqADibcRNjMnBhLmhhc2guZGF0YQAAAAAYYzJzaN0o2azexDx2K5QXhdMkCkQAAACAY2JvcqVjYWxnZnNoYTI1NmNwYWRNAAAAAAAAAAAAAAAAAGRoYXNoWCA7+7206sTibr5t68txO0YfNbIOd+EelasesCoX1cXrk2RuYW1lbmp1bWJmIG1hbmlmZXN0amV4Y2x1c2lvbnOBomVzdGFydBiyZmxlbmd0aBkeBAAAAj5qdW1iAAAAJ2p1bWRjMmNsABEAEIAAAKoAOJtxA2MycGEuY2xhaW0udjIAAAACD2Nib3KlY2FsZ2ZzaGEyNTZpc2lnbmF0dXJleE1zZWxmI2p1bWJmPS9jMnBhL3VybjpjMnBhOjQ0ZjQyZjc4LTNjOGItNDhkZi05Njk3LWVjNTkwMzk5YTkxMy9jMnBhLnNpZ25hdHVyZWppbnN0YW5jZUlEeCx4bXA6aWlkOjI1NTQxMThhLTUwZjQtNDg3MC05ZmZiLWI2NWQ0NjU5YmMzM3JjcmVhdGVkX2Fzc2VydGlvbnODomN1cmx4LXNlbGYjanVtYmY9YzJwYS5hc3NlcnRpb25zL2MycGEuaW5ncmVkaWVudC52M2RoYXNoWCDN9f0uRyJP34RRDz68cMLBL7ySFH7CtxmQMW7KPfX6RaJjdXJseCpzZWxmI2p1bWJmPWMycGEuYXNzZXJ0aW9ucy9jMnBhLmFjdGlvbnMudjJkaGFzaFgglgni1RdhjB0i3+XF8CiMYO9u8PBbIi5l2qqK+6gP3N2iY3VybHgpc2VsZiNqdW1iZj1jMnBhLmFzc2VydGlvbnMvYzJwYS5oYXNoLmRhdGFkaGFzaFggfLS6vY0aogM22sumhnyr8jBtSJTheVuU2Dl4QnXBUL10Y2xhaW1fZ2VuZXJhdG9yX2luZm+jZG5hbWVvQW50aHJvcGljIEZpbGVzZ3ZlcnNpb25lMS4wLjBrc3BlY1ZlcnNpb25lMi40LjAAABA4anVtYgAAAChqdW1kYzJjcwARABCAAACqADibcQNjMnBhLnNpZ25hdHVyZQAAABAIY2JvctKEWQISogEmGCFZAgowggIGMIIBjaADAgECAhRA5aAK7sI50L64g/oGQgU9Z1UTADAKBggqhkjOPQQDAzBJMRcwFQYDVQQKEw5BbnRocm9waWMsIFBCQzEuMCwGA1UEAxMlQW50aHJvcGljIENvbnRlbnQgQ3JlZGVudGlhbHMgUm9vdCBDQTAeFw0yNjA4MDcxODQzNTZaFw0yODA4MDYxOTQzNTZaMEQxFzAVBgNVBAoTDkFudGhyb3BpYywgUEJDMSkwJwYDVQQDEyBBbnRocm9waWMgQ2xhdWRlIENvbnRlbnQgU2lnbmluZzBZMBMGByqGSM49AgEGCCqGSM49AwEHA0IABJh6CmvLUBgFFNU0vUKlOVtE6djd17L5SuwX0LemFisBM3dkd/3cyjxFA3Qo5S46fX0/ihY0VZ7mfb9KF703t5OjWDBWMA4GA1UdDwEB/wQEAwIHgDAVBgNVHSUEDjAMBgorBgEEAYPoXgIBMAwGA1UdEwEB/wQCMAAwHwYDVR0jBBgwFoAUzlHiBIFOZFsj+OPEz5o+nMHXXMIwCgYIKoZIzj0EAwMDZwAwZAIwMXMdFJ4BetLLVY7ORuE9noqbbAZOZn/aArXyTwFAZfKrPzxF2vPoJNf1+UCdg1XGAjBwX1zd9WGqYkqmL5SFqw1QySjr1zJfpJM9+1rdDwSPLMOPOjKuiXjoU/pUUeG9RwmhY3BhZFkNngAAAAAAAAAAAAAAAAAAAAAAAAAAAAAAAAAAAAAAAAAAAAAAAAAAAAAAAAAAAAAAAAAAAAAAAAAAAAAAAAAAAAAAAAAAAAAAAAAAAAAAAAAAAAAAAAAAAAAAAAAAAAAAAAAAAAAAAAAAAAAAAAAAAAAAAAAAAAAAAAAAAAAAAAAAAAAAAAAAAAAAAAAAAAAAAAAAAAAAAAAAAAAAAAAAAAAAAAAAAAAAAAAAAAAAAAAAAAAAAAAAAAAAAAAAAAAAAAAAAAAAAAAAAAAAAAAAAAAAAAAAAAAAAAAAAAAAAAAAAAAAAAAAAAAAAAAAAAAAAAAAAAAAAAAAAAAAAAAAAAAAAAAAAAAAAAAAAAAAAAAAAAAAAAAAAAAAAAAAAAAAAAAAAAAAAAAAAAAAAAAAAAAAAAAAAAAAAAAAAAAAAAAAAAAAAAAAAAAAAAAAAAAAAAAAAAAAAAAAAAAAAAAAAAAAAAAAAAAAAAAAAAAAAAAAAAAAAAAAAAAAAAAAAAAAAAAAAAAAAAAAAAAAAAAAAAAAAAAAAAAAAAAAAAAAAAAAAAAAAAAAAAAAAAAAAAAAAAAAAAAAAAAAAAAAAAAAAAAAAAAAAAAAAAAAAAAAAAAAAAAAAAAAAAAAAAAAAAAAAAAAAAAAAAAAAAAAAAAAAAAAAAAAAAAAAAAAAAAAAAAAAAAAAAAAAAAAAAAAAAAAAAAAAAAAAAAAAAAAAAAAAAAAAAAAAAAAAAAAAAAAAAAAAAAAAAAAAAAAAAAAAAAAAAAAAAAAAAAAAAAAAAAAAAAAAAAAAAAAAAAAAAAAAAAAAAAAAAAAAAAAAAAAAAAAAAAAAAAAAAAAAAAAAAAAAAAAAAAAAAAAAAAAAAAAAAAAAAAAAAAAAAAAAAAAAAAAAAAAAAAAAAAAAAAAAAAAAAAAAAAAAAAAAAAAAAAAAAAAAAAAAAAAAAAAAAAAAAAAAAAAAAAAAAAAAAAAAAAAAAAAAAAAAAAAAAAAAAAAAAAAAAAAAAAAAAAAAAAAAAAAAAAAAAAAAAAAAAAAAAAAAAAAAAAAAAAAAAAAAAAAAAAAAAAAAAAAAAAAAAAAAAAAAAAAAAAAAAAAAAAAAAAAAAAAAAAAAAAAAAAAAAAAAAAAAAAAAAAAAAAAAAAAAAAAAAAAAAAAAAAAAAAAAAAAAAAAAAAAAAAAAAAAAAAAAAAAAAAAAAAAAAAAAAAAAAAAAAAAAAAAAAAAAAAAAAAAAAAAAAAAAAAAAAAAAAAAAAAAAAAAAAAAAAAAAAAAAAAAAAAAAAAAAAAAAAAAAAAAAAAAAAAAAAAAAAAAAAAAAAAAAAAAAAAAAAAAAAAAAAAAAAAAAAAAAAAAAAAAAAAAAAAAAAAAAAAAAAAAAAAAAAAAAAAAAAAAAAAAAAAAAAAAAAAAAAAAAAAAAAAAAAAAAAAAAAAAAAAAAAAAAAAAAAAAAAAAAAAAAAAAAAAAAAAAAAAAAAAAAAAAAAAAAAAAAAAAAAAAAAAAAAAAAAAAAAAAAAAAAAAAAAAAAAAAAAAAAAAAAAAAAAAAAAAAAAAAAAAAAAAAAAAAAAAAAAAAAAAAAAAAAAAAAAAAAAAAAAAAAAAAAAAAAAAAAAAAAAAAAAAAAAAAAAAAAAAAAAAAAAAAAAAAAAAAAAAAAAAAAAAAAAAAAAAAAAAAAAAAAAAAAAAAAAAAAAAAAAAAAAAAAAAAAAAAAAAAAAAAAAAAAAAAAAAAAAAAAAAAAAAAAAAAAAAAAAAAAAAAAAAAAAAAAAAAAAAAAAAAAAAAAAAAAAAAAAAAAAAAAAAAAAAAAAAAAAAAAAAAAAAAAAAAAAAAAAAAAAAAAAAAAAAAAAAAAAAAAAAAAAAAAAAAAAAAAAAAAAAAAAAAAAAAAAAAAAAAAAAAAAAAAAAAAAAAAAAAAAAAAAAAAAAAAAAAAAAAAAAAAAAAAAAAAAAAAAAAAAAAAAAAAAAAAAAAAAAAAAAAAAAAAAAAAAAAAAAAAAAAAAAAAAAAAAAAAAAAAAAAAAAAAAAAAAAAAAAAAAAAAAAAAAAAAAAAAAAAAAAAAAAAAAAAAAAAAAAAAAAAAAAAAAAAAAAAAAAAAAAAAAAAAAAAAAAAAAAAAAAAAAAAAAAAAAAAAAAAAAAAAAAAAAAAAAAAAAAAAAAAAAAAAAAAAAAAAAAAAAAAAAAAAAAAAAAAAAAAAAAAAAAAAAAAAAAAAAAAAAAAAAAAAAAAAAAAAAAAAAAAAAAAAAAAAAAAAAAAAAAAAAAAAAAAAAAAAAAAAAAAAAAAAAAAAAAAAAAAAAAAAAAAAAAAAAAAAAAAAAAAAAAAAAAAAAAAAAAAAAAAAAAAAAAAAAAAAAAAAAAAAAAAAAAAAAAAAAAAAAAAAAAAAAAAAAAAAAAAAAAAAAAAAAAAAAAAAAAAAAAAAAAAAAAAAAAAAAAAAAAAAAAAAAAAAAAAAAAAAAAAAAAAAAAAAAAAAAAAAAAAAAAAAAAAAAAAAAAAAAAAAAAAAAAAAAAAAAAAAAAAAAAAAAAAAAAAAAAAAAAAAAAAAAAAAAAAAAAAAAAAAAAAAAAAAAAAAAAAAAAAAAAAAAAAAAAAAAAAAAAAAAAAAAAAAAAAAAAAAAAAAAAAAAAAAAAAAAAAAAAAAAAAAAAAAAAAAAAAAAAAAAAAAAAAAAAAAAAAAAAAAAAAAAAAAAAAAAAAAAAAAAAAAAAAAAAAAAAAAAAAAAAAAAAAAAAAAAAAAAAAAAAAAAAAAAAAAAAAAAAAAAAAAAAAAAAAAAAAAAAAAAAAAAAAAAAAAAAAAAAAAAAAAAAAAAAAAAAAAAAAAAAAAAAAAAAAAAAAAAAAAAAAAAAAAAAAAAAAAAAAAAAAAAAAAAAAAAAAAAAAAAAAAAAAAAAAAAAAAAAAAAAAAAAAAAAAAAAAAAAAAAAAAAAAAAAAAAAAAAAAAAAAAAAAAAAAAAAAAAAAAAAAAAAAAAAAAAAAAAAAAAAAAAAAAAAAAAAAAAAAAAAAAAAAAAAAAAAAAAAAAAAAAAAAAAAAAAAAAAAAAAAAAAAAAAAAAAAAAAAAAAAAAAAAAAAAAAAAAAAAAAAAAAAAAAAAAAAAAAAAAAAAAAAAAAAAAAAAAAAAAAAAAAAAAAAAAAAAAAAAAAAAAAAAAAAAAAAAAAAAAAAAAAAAAAAAAAAAAAAAAAAAAAAAAAAAAAAAAAAAAAAAAAAAAAAAAAAAAAAAAAAAAAAAAAAAAAAAAAAAAAAAAAAAAAAAAAAAAAAAAAAAAAAAAAAAAAAAAAAAAAAAAAAAAAAAAAAAAAAAAAAAAAAAAAAAAAAAAAAAAAAAAAAAAAAAAAAAAAAAAAAAAAAAAAAAAAAAAAAAAAAAAAAAAAAAAAAAAAAAAAAAAAAAAAAAAAAAAAAAAAAAAAAAAAAAAAAAAAAAAAAAAAAAAAAAAAAAAAAAAAAAAAAAAAAAAAAAAAAAAAAAAAAAAAAAAAAAAAAAAAAAAAAAAAAAAAAAAAAAAAAAAAAAAAAAAAAAAAAAAAAAAAAAAAAAAAAAAAAAAAAAAAAAAAAAAAAAAAAAAAAAAAAAAAAAAAAAAAAAAAAAAAAAAAAAAAAAAAAAAAAAAAAAAAAAAAAAAAAAAAAAAAAAAAAAAAAAAAAAAAAAAAAAAAAAAAAAAAAAAAAAAAAAAAAAAAAAAAAAAAAAAAAAAAAAAAAAAAAAAAAAAAAAAAAAAAAAAAAAAAAAAAAAAAAAAAAAAAAAAAAAAAAAAAAAAAAAAAAAAAAAAAAAAAAAAAAAAAAAAAAAAAAAAAAAAAAAAAAAAAAAAAAAAAAAAAAAAAAAAAAAAAAAAAAAAAAAAAAAAAAAAAAAAAAAAAAAAAAAAAAAAAAAAAAAAAAAAAAAAAAAAAAAAAAAAAAAAAAAAAAAAAAAAAAAAAAAAAAAAAAAAAAAAAAAAAAAAAAAAAAAAAAAAAAAAAAAAAAAAAAAAAAAAAAAAAAAAAAAAAAAAAAAAAAAAAAAAAAAAAAAAAAAAAAAAAAAAAAAAAAAAAAAAAAAAAAAAAAAAAAAAAAAAAAAAAAAAAAAAAAAAAAAAAAAAAAAAAAAAAAAAAAAAAAAAAAAAAAAAAAAAAAAAAAAAAAAAAAAAAAAAAAAAAAAAAAAAAAAAAAAAAAAAAAAAAAAAAAAAAAAAAAAAAAAAAAAAAAAAAAAAAAAAAAAAAAAAAAAAAAAAAAAAAAAAAAAAAAAAAAAAAAAAAAAAAAAAAAAAAAAAAAAAAAAAAAAAAAAAAAAAAAAAAAAAAAAAAAAAAAAAAAAAAAAAAAAAAAAAAAAAAAAAAAAAAAAAAAAAAAAAAAAAAAAAAAAAAAAAAAAAAAAAAAAAAAAAAAAAAAAAAAAAAAAAAAAAAAAAAAAAAAAAAAAAAAAAAAAAAAAAAAAAAAAAAAAAAAAAAAAAAAAAAAAAAAAAAAAAAAAAAAAAAAAAAAAAAAAAAAAAAAAAAAAAAAAAAAAAAAAAAAAAAAAAAAAAAAAAAAAAAAAAAAAAAAAAAAAAAAAAAAAAAAAAAAAAAAAAAAAAAAAAAAAAAAAAAAAAAAAAAAAAAAAAAAAAAAAAAAAAAAAAAAAAAAAAAAAAAAAAAAAAAAAAAAAAAAAAAAAAAAAAAAAAAAAAAAAAAAAAAAAAPZYQO7nZcIGp3I9NbUPZ1ONfXJNmmtb4JMvddC64Sxgzk+MOrNVm248OhQGgCN60KpI11v5zNLUihniLRq7BJKBIyM=</c2pa:manifest></metadata><title>Axiom Civil</title><defs><linearGradient id="steel" x1="0" y1="1" x2="1" y2="0"><stop offset="0" stop-color="#8E959C"/><stop offset=".45" stop-color="#E9ECEF"/><stop offset=".6" stop-color="#C3C8CD"/><stop offset="1" stop-color="#7F868D"/></linearGradient></defs><g transform="scale(0.5)"><polygon points="563.0,33.0 663.0,33.0 126.0,913.0 26.0,913.0" fill="url(#steel)"/>
<polygon points="663.0,33.0 736.0,33.0 1276.0,913.0 288.0,913.0 380.0,763.0 998.0,763.0 655.5,204.0 222.0,913.0 126.0,913.0" fill="#0A1E33"/>
<rect x="940.0" y="496.5" width="22" height="22" rx="4" fill="#33E3F0"/>
<rect x="1031.5" y="557.0" width="22" height="22" rx="4" fill="#33E3F0"/>
<rect x="1244.5" y="557.0" width="22" height="22" rx="4" fill="#33E3F0"/>
<rect x="940.0" y="587.0" width="22" height="22" rx="4" fill="#33E3F0"/>
<rect x="1000.5" y="587.0" width="22" height="22" rx="4" fill="#33E3F0"/>
<rect x="1031.0" y="617.5" width="22" height="22" rx="4" fill="#33E3F0"/>
<rect x="1122.5" y="617.0" width="22" height="22" rx="4" fill="#33E3F0"/>
<rect x="1092.0" y="647.5" width="22" height="22" rx="4" fill="#33E3F0"/>
<rect x="970.5" y="677.5" width="22" height="22" rx="4" fill="#33E3F0"/>
<rect x="1001.0" y="677.5" width="22" height="22" rx="4" fill="#33E3F0"/>
<rect x="1031.0" y="677.5" width="22" height="22" rx="4" fill="#33E3F0"/>
<rect x="1061.5" y="677.5" width="22" height="22" rx="4" fill="#33E3F0"/>
<rect x="1275.0" y="677.5" width="22" height="22" rx="4" fill="#33E3F0"/>
<rect x="1061.5" y="707.5" width="22" height="22" rx="4" fill="#33E3F0"/>
<rect x="1122.5" y="707.5" width="22" height="22" rx="4" fill="#33E3F0"/>
<rect x="1153.0" y="708.0" width="22" height="22" rx="4" fill="#33E3F0"/>
<rect x="1001.0" y="738.0" width="22" height="22" rx="4" fill="#33E3F0"/>
<rect x="1092.0" y="738.0" width="22" height="22" rx="4" fill="#33E3F0"/>
<rect x="1122.5" y="738.0" width="22" height="22" rx="4" fill="#33E3F0"/>
<rect x="1275.0" y="738.0" width="22" height="22" rx="4" fill="#33E3F0"/>
<rect x="513.5" y="768.0" width="22" height="22" rx="4" fill="#33E3F0"/>
<rect x="574.5" y="768.0" width="22" height="22" rx="4" fill="#33E3F0"/>
<rect x="696.0" y="768.0" width="22" height="22" rx="4" fill="#33E3F0"/>
<rect x="818.0" y="768.0" width="22" height="22" rx="4" fill="#33E3F0"/>
<rect x="848.5" y="768.0" width="22" height="22" rx="4" fill="#33E3F0"/>
<rect x="940.0" y="768.0" width="22" height="22" rx="4" fill="#33E3F0"/>
<rect x="1001.0" y="768.0" width="22" height="22" rx="4" fill="#33E3F0"/>
<rect x="1031.0" y="768.0" width="22" height="22" rx="4" fill="#33E3F0"/>
<rect x="1092.0" y="768.0" width="22" height="22" rx="4" fill="#33E3F0"/>
<rect x="1122.5" y="768.0" width="22" height="22" rx="4" fill="#33E3F0"/>
<rect x="391.5" y="798.0" width="22" height="22" rx="4" fill="#33E3F0"/>
<rect x="544.0" y="798.0" width="22" height="22" rx="4" fill="#33E3F0"/>
<rect x="605.0" y="798.0" width="22" height="22" rx="4" fill="#33E3F0"/>
<rect x="635.5" y="798.0" width="22" height="22" rx="4" fill="#33E3F0"/>
<rect x="666.0" y="798.0" width="22" height="22" rx="4" fill="#33E3F0"/>
<rect x="726.5" y="798.0" width="22" height="22" rx="4" fill="#33E3F0"/>
<rect x="757.0" y="798.0" width="22" height="22" rx="4" fill="#33E3F0"/>
<rect x="787.5" y="798.0" width="22" height="22" rx="4" fill="#33E3F0"/>
<rect x="818.0" y="798.0" width="22" height="22" rx="4" fill="#33E3F0"/>
<rect x="848.5" y="798.0" width="22" height="22" rx="4" fill="#33E3F0"/>
<rect x="879.0" y="798.0" width="22" height="22" rx="4" fill="#33E3F0"/>
<rect x="940.0" y="798.0" width="22" height="22" rx="4" fill="#33E3F0"/>
<rect x="970.5" y="798.0" width="22" height="22" rx="4" fill="#33E3F0"/>
<rect x="1001.0" y="798.0" width="22" height="22" rx="4" fill="#33E3F0"/>
<rect x="1061.5" y="798.0" width="22" height="22" rx="4" fill="#33E3F0"/>
<rect x="1092.0" y="798.0" width="22" height="22" rx="4" fill="#33E3F0"/>
<rect x="1122.5" y="798.0" width="22" height="22" rx="4" fill="#33E3F0"/>
<rect x="1183.5" y="798.0" width="22" height="22" rx="4" fill="#33E3F0"/>
<rect x="1214.0" y="798.0" width="22" height="22" rx="4" fill="#33E3F0"/>
<rect x="452.5" y="828.5" width="22" height="22" rx="4" fill="#33E3F0"/>
<rect x="483.0" y="828.0" width="22" height="22" rx="4" fill="#33E3F0"/>
<rect x="513.5" y="828.0" width="22" height="22" rx="4" fill="#33E3F0"/>
<rect x="605.0" y="828.0" width="22" height="22" rx="4" fill="#33E3F0"/>
<rect x="757.0" y="828.0" width="22" height="22" rx="4" fill="#33E3F0"/>
<rect x="787.5" y="828.5" width="22" height="22" rx="4" fill="#33E3F0"/>
<rect x="879.0" y="828.0" width="22" height="22" rx="4" fill="#33E3F0"/>
<rect x="940.0" y="828.5" width="22" height="22" rx="4" fill="#33E3F0"/>
<rect x="970.5" y="828.5" width="22" height="22" rx="4" fill="#33E3F0"/>
<rect x="1000.5" y="828.0" width="22" height="22" rx="4" fill="#33E3F0"/>
<rect x="1031.0" y="828.0" width="22" height="22" rx="4" fill="#33E3F0"/>
<rect x="1061.5" y="828.5" width="22" height="22" rx="4" fill="#33E3F0"/>
<rect x="1092.0" y="828.5" width="22" height="22" rx="4" fill="#33E3F0"/>
<rect x="1122.5" y="828.5" width="22" height="22" rx="4" fill="#33E3F0"/>
<rect x="1153.0" y="828.5" width="22" height="22" rx="4" fill="#33E3F0"/>
<rect x="1183.5" y="828.5" width="22" height="22" rx="4" fill="#33E3F0"/>
<rect x="1214.0" y="828.0" width="22" height="22" rx="4" fill="#33E3F0"/>
<rect x="361.5" y="858.5" width="22" height="22" rx="4" fill="#33E3F0"/>
<rect x="544.0" y="858.5" width="22" height="22" rx="4" fill="#33E3F0"/>
<rect x="574.5" y="858.5" width="22" height="22" rx="4" fill="#33E3F0"/>
<rect x="605.0" y="858.5" width="22" height="22" rx="4" fill="#33E3F0"/>
<rect x="635.5" y="858.5" width="22" height="22" rx="4" fill="#33E3F0"/>
<rect x="696.0" y="858.5" width="22" height="22" rx="4" fill="#33E3F0"/>
<rect x="726.5" y="858.5" width="22" height="22" rx="4" fill="#33E3F0"/>
<rect x="757.0" y="858.5" width="22" height="22" rx="4" fill="#33E3F0"/>
<rect x="818.0" y="858.5" width="22" height="22" rx="4" fill="#33E3F0"/>
<rect x="909.5" y="858.5" width="22" height="22" rx="4" fill="#33E3F0"/>
<rect x="970.5" y="858.5" width="22" height="22" rx="4" fill="#33E3F0"/>
<rect x="1001.0" y="858.5" width="22" height="22" rx="4" fill="#33E3F0"/>
<rect x="1031.5" y="858.5" width="22" height="22" rx="4" fill="#33E3F0"/>
<rect x="1092.0" y="858.5" width="22" height="22" rx="4" fill="#33E3F0"/>
<rect x="1122.5" y="858.5" width="22" height="22" rx="4" fill="#33E3F0"/>
<rect x="1153.0" y="858.5" width="22" height="22" rx="4" fill="#33E3F0"/>
<rect x="1183.5" y="858.5" width="22" height="22" rx="4" fill="#33E3F0"/>
<rect x="1275.0" y="858.5" width="22" height="22" rx="4" fill="#33E3F0"/>
<rect x="422.0" y="888.5" width="22" height="22" rx="4" fill="#33E3F0"/>
<rect x="513.5" y="888.5" width="22" height="22" rx="4" fill="#33E3F0"/>
<rect x="666.0" y="888.5" width="22" height="22" rx="4" fill="#33E3F0"/>
<rect x="696.0" y="888.5" width="22" height="22" rx="4" fill="#33E3F0"/>
<rect x="787.5" y="888.5" width="22" height="22" rx="4" fill="#33E3F0"/>
<rect x="848.5" y="888.5" width="22" height="22" rx="4" fill="#33E3F0"/>
<rect x="879.0" y="888.5" width="22" height="22" rx="4" fill="#33E3F0"/>
<rect x="940.0" y="888.5" width="22" height="22" rx="4" fill="#33E3F0"/>
<rect x="1031.0" y="888.5" width="22" height="22" rx="4" fill="#33E3F0"/>
<rect x="1092.0" y="888.5" width="22" height="22" rx="4" fill="#33E3F0"/>
<rect x="1153.0" y="888.5" width="22" height="22" rx="4" fill="#33E3F0"/>
<rect x="1214.0" y="888.5" width="22" height="22" rx="4" fill="#33E3F0"/>
<rect x="1031.0" y="919.0" width="22" height="22" rx="4" fill="#33E3F0"/>
<rect x="1155.0" y="589.5" width="18" height="18" rx="4" fill="#0A1E33" opacity=".85"/>
<rect x="1216.0" y="619.5" width="18" height="18" rx="4" fill="#0A1E33" opacity=".85"/>
<rect x="1185.5" y="679.5" width="18" height="18" rx="4" fill="#0A1E33" opacity=".85"/>
<rect x="880.5" y="709.5" width="18" height="18" rx="4" fill="#0A1E33" opacity=".85"/>
<rect x="1246.5" y="709.5" width="18" height="18" rx="4" fill="#0A1E33" opacity=".85"/>
<rect x="820.0" y="739.5" width="18" height="18" rx="4" fill="#0A1E33" opacity=".85"/>
<rect x="1185.5" y="739.5" width="18" height="18" rx="4" fill="#0A1E33" opacity=".85"/>
<rect x="1246.5" y="800.5" width="18" height="18" rx="4" fill="#0A1E33" opacity=".85"/>
<rect x="698.5" y="920.5" width="18" height="18" rx="4" fill="#0A1E33" opacity=".85"/>
<rect x="972.5" y="950.5" width="18" height="18" rx="4" fill="#0A1E33" opacity=".85"/></g><path d="M717.93 322.0 789.69 161.0H826.49L898.48 322.0H859.38L845.12 287.5H770.37L756.11 322.0ZM833.39 259.21 807.86 197.57 782.33 259.21Z M906.07 322.0 965.64 240.12 909.06 161.0H951.38L988.18 213.20999999999998L1024.52 161.0H1065.0L1008.88 238.74L1068.91 322.0H1025.9L987.03 266.11L948.85 322.0Z M1097.8899999999999 322.0V161.0H1135.1499999999999V322.0Z M1260.73 324.76Q1241.64 324.76 1225.4250000000002 318.54999999999995Q1209.21 312.34 1197.365 301.07Q1185.52 289.8 1178.9650000000001 274.62Q1172.41 259.44 1172.41 241.5Q1172.41 223.56 1178.9650000000001 208.38Q1185.52 193.2 1197.48 181.93Q1209.44 170.66 1225.54 164.45Q1241.64 158.23999999999998 1260.5 158.23999999999998Q1279.5900000000001 158.23999999999998 1295.575 164.45Q1311.56 170.66 1323.405 181.93Q1335.25 193.2 1341.92 208.265Q1348.5900000000001 223.32999999999998 1348.5900000000001 241.5Q1348.5900000000001 259.44 1341.92 274.735Q1335.25 290.03 1323.405 301.18499999999995Q1311.56 312.34 1295.575 318.54999999999995Q1279.5900000000001 324.76 1260.73 324.76ZM1260.5 293.02Q1271.31 293.02 1280.395 289.34Q1289.48 285.65999999999997 1296.38 278.76Q1303.28 271.86 1307.075 262.43Q1310.8700000000001 253.0 1310.8700000000001 241.5Q1310.8700000000001 230.0 1307.075 220.57Q1303.28 211.14 1296.495 204.23999999999998Q1289.71 197.33999999999997 1280.51 193.65999999999997Q1271.31 189.98 1260.5 189.98Q1249.69 189.98 1240.605 193.65999999999997Q1231.52 197.33999999999997 1224.62 204.23999999999998Q1217.72 211.14 1213.9250000000002 220.57Q1210.13 230.0 1210.13 241.5Q1210.13 252.76999999999998 1213.9250000000002 262.315Q1217.72 271.86 1224.505 278.76Q1231.29 285.65999999999997 1240.49 289.34Q1249.69 293.02 1260.5 293.02Z M1385.85 322.0V161.0H1416.67L1476.93 261.05L1536.27 161.0H1566.8600000000001L1567.32 322.0H1532.36L1532.13 225.39999999999998L1484.75 304.98H1467.96L1420.81 227.47V322.0Z  M1766.0400000000002 324.76Q1747.41 324.76 1731.4250000000002 318.66499999999996Q1715.44 312.57 1703.71 301.29999999999995Q1691.98 290.03 1685.4250000000002 274.85Q1678.8700000000001 259.67 1678.8700000000001 241.5Q1678.8700000000001 223.32999999999998 1685.4250000000002 208.14999999999998Q1691.98 192.97 1703.825 181.7Q1715.67 170.43 1731.54 164.33499999999998Q1747.41 158.23999999999998 1766.27 158.23999999999998Q1787.2 158.23999999999998 1804.105 165.48499999999999Q1821.0100000000002 172.73 1832.5100000000002 186.76L1808.5900000000001 208.83999999999997Q1800.3100000000002 199.41 1790.19 194.695Q1780.0700000000002 189.98 1768.1100000000001 189.98Q1756.8400000000001 189.98 1747.41 193.65999999999997Q1737.98 197.33999999999997 1731.08 204.23999999999998Q1724.18 211.14 1720.3850000000002 220.57Q1716.5900000000001 230.0 1716.5900000000001 241.5Q1716.5900000000001 253.0 1720.3850000000002 262.43Q1724.18 271.86 1731.08 278.76Q1737.98 285.65999999999997 1747.41 289.34Q1756.8400000000001 293.02 1768.1100000000001 293.02Q1780.0700000000002 293.02 1790.19 288.30499999999995Q1800.3100000000002 283.59 1808.5900000000001 273.93L1832.5100000000002 296.01Q1821.0100000000002 310.04 1804.105 317.4Q1787.2 324.76 1766.0400000000002 324.76Z M1864.71 322.0V161.0H1901.97V322.0Z M1997.65 322.0 1928.19 161.0H1968.44L2017.43 276.0L2067.11 161.0H2104.14L2034.45 322.0Z M2130.13 322.0V161.0H2167.39V322.0Z M2214.7700000000004 322.0V161.0H2252.03V291.64H2332.76V322.0Z" fill="#0B0F17"/></svg>
